<svg width="24" height="24" xmlns="http://www.w3.org/2000/svg">
 <g>
  <title>background</title>
  <rect x="-1" y="-1" width="26" height="26" id="canvas_background" fill="none"/>
 </g>

 <g>
  <title>Layer 1</title>
  <rect id="svg_9" height="13.8125" width="15.5625" y="5.15332" x="2.15625" stroke-opacity="null" stroke-width="0" stroke="null" fill="#ffffff"/>
  <path stroke-width="0" d="m18.46803,4.03524c-0.4534,-0.66649 -1.20907,-1.09774 -2.05291,-1.09774l-13.85396,0c-1.3854,0 -2.51891,1.17615 -2.51891,2.61368l0,13.06841c0,1.45059 1.13351,2.61368 2.51891,2.61368l13.85396,0c0.84384,0 1.59951,-0.44432 2.05291,-1.11081l5.5038,-8.03708l-5.5038,-8.05014m-11.56177,2.86198c0.98238,0 1.78843,0.83638 1.78843,1.85572s-0.80605,1.85571 -1.78843,1.85571s-1.78842,-0.83637 -1.78842,-1.85571s0.80605,-1.85572 1.78842,-1.85572m6.42321,10.37632c-0.98237,0 -1.78842,-0.83638 -1.78842,-1.85571s0.80605,-1.85572 1.78842,-1.85572s1.78842,0.83638 1.78842,1.85572s-0.80605,1.85571 -1.78842,1.85571m-6.73807,0.03921l-1.51134,-1.56821l8.56427,-8.88652l1.51134,1.56821l-8.56427,8.88652z" fill="#e9362b" id="svg_1" stroke="null"/>
 </g>
</svg>